<svg xmlns="http://www.w3.org/2000/svg" viewBox="0 0 32 32" width="32" height="32" shape-rendering="crispEdges" role="img" aria-label="Tremortusk (Dash)"><title>Tremortusk — Dash · 10HP · 3atk · 2rng · 2mov · 5pts</title><polygon points="16,1 21,6.5 11,6.5" fill="#f2c14e"/><rect x="6" y="8" width="20" height="20" rx="2" fill="#8a94a0" stroke="#20262d" stroke-width="1"/><polygon points="6,8 26,8 23,11 9,11" fill="#2f6fd0"/><polygon points="6,28 26,28 23,25 9,25" fill="#d63d3d"/><polygon points="6,8 6,28 9,25 9,11" fill="#49535e"/><polygon points="26,8 26,28 23,25 23,11" fill="#49535e"/><polygon points="16,13 21,18.5 18.6,18.5 16,15.8 13.4,18.5 11,18.5" fill="#161b21"/><polygon points="16,18.5 21,24 18.6,24 16,21.3 13.4,24 11,24" fill="#161b21"/></svg>